<svg width="50" height="24" viewBox="0 0 50 24" fill="none" xmlns="http://www.w3.org/2000/svg">
<path d="M13.0867 1.32738C12.9316 1.1147 13.0835 0.815948 13.3467 0.815948H49.6781C49.877 0.815948 50.0283 0.99464 49.9955 1.19086L48.494 10.1695C48.4681 10.3246 48.3339 10.4382 48.1766 10.4382H19.8932C19.7904 10.4382 19.6938 10.3891 19.6332 10.306L13.0867 1.32738Z" fill="#14151C"/>
<path d="M36.9133 22.6726C37.0684 22.8853 36.9165 23.184 36.6533 23.184H0.321905C0.122965 23.184 -0.028325 23.0054 0.00448791 22.8091L1.50598 13.8305C1.53191 13.6754 1.66614 13.5618 1.82339 13.5618H30.1068C30.2096 13.5618 30.3062 13.6109 30.3668 13.694L36.9133 22.6726Z" fill="#14151C"/>
</svg>
