<svg width="58" height="58" viewBox="0 0 58 58" fill="none" xmlns="http://www.w3.org/2000/svg">
<g clip-path="url(#clip0_38_808)">
<g clip-path="url(#clip1_38_808)">
<path d="M17.8155 40.2176H40.1846V45.6906H17.8155V40.2176Z" fill="#151619"/>
<path d="M54.1718 26.5542C54.1049 26.5542 54.0387 26.5564 53.9727 26.56C52.916 20.6778 47.7722 16.2145 41.5859 16.2145C34.6349 16.2145 29 21.8495 29 28.8004C29 21.8495 23.3651 16.2146 16.4141 16.2146C10.2278 16.2146 5.08404 20.678 4.02726 26.5601C3.96133 26.5565 3.89507 26.5544 3.82825 26.5544C1.85203 26.5542 0.25 28.1563 0.25 30.1325C0.25 32.1087 1.85203 33.7107 3.82825 33.7107C5.80448 33.7107 7.4065 32.1087 7.4065 30.1325C7.4065 28.2794 5.99775 26.7553 4.19279 26.5727C5.12335 23.8029 7.73859 21.8068 10.8219 21.8068C14.6844 21.8068 17.8156 24.938 17.8156 28.8004V36.8484H40.1847V28.8004C40.1847 24.938 43.3158 21.8068 47.1782 21.8068C50.2614 21.8068 52.8768 23.8029 53.8073 26.5727C52.0024 26.7553 50.5936 28.2794 50.5936 30.1325C50.5936 32.1087 52.1956 33.7107 54.1719 33.7107C56.1481 33.7107 57.7501 32.1087 57.7501 30.1325C57.75 28.1563 56.148 26.5542 54.1718 26.5542Z" fill="#151619"/>
<path d="M29 18.9904C29.4014 18.4776 29.8362 17.9862 30.3039 17.5184C31.235 16.5874 32.261 15.7861 33.3598 15.1225C32.413 13.7267 30.8137 12.8093 29 12.8093C27.1863 12.8093 25.5869 13.7266 24.6402 15.1225C25.739 15.786 26.765 16.5874 27.696 17.5184C28.1638 17.9862 28.5986 18.4776 29 18.9904Z" fill="#151619"/>
</g>
</g>
<defs>
<clipPath id="clip0_38_808">
<rect width="57.5" height="57.5" fill="white" transform="translate(0.25 0.25)"/>
</clipPath>
<clipPath id="clip1_38_808">
<rect width="57.5" height="57.5" fill="white" transform="translate(0.25 0.5)"/>
</clipPath>
</defs>
</svg>
