<svg width="50" height="24" viewBox="0 0 50 24" fill="none" xmlns="http://www.w3.org/2000/svg">
<path d="M13.0867 1.32742C12.9316 1.11475 13.0835 0.815994 13.3467 0.815994H49.6781C49.877 0.815994 50.0283 0.994686 49.9955 1.1909L48.494 10.1695C48.4681 10.3246 48.3339 10.4383 48.1766 10.4383H19.8932C19.7904 10.4383 19.6938 10.3891 19.6332 10.306L13.0867 1.32742Z" fill="white"/>
<path d="M36.9133 22.6727C37.0684 22.8853 36.9165 23.1841 36.6533 23.1841H0.321905C0.122965 23.1841 -0.028325 23.0054 0.00448791 22.8092L1.50598 13.8306C1.53191 13.6755 1.66614 13.5618 1.82339 13.5618H30.1068C30.2096 13.5618 30.3062 13.611 30.3668 13.6941L36.9133 22.6727Z" fill="white"/>
</svg>
